solid ESP_Halter_V
facet normal -1.011951917386907e-17 -1.1115711611148008e-18 -1.0
  outer loop
    vertex 29.500000000000004 50.99999999999997 0.0
    vertex 35.99999999999999 44.5 -1.4099832412739487e-15
    vertex 29.500000000000004 8.497961249874402 0.0
  endloop
endfacet
facet normal -1.011951917386907e-17 -1.1115711611148008e-18 -1.0
  outer loop
    vertex 35.99999999999999 44.5 -1.4099832412739487e-15
    vertex 29.500000000000004 50.99999999999997 0.0
    vertex 37.49999999999999 50.99999999999997 0.0
  endloop
endfacet
facet normal -1.011951917386907e-17 -1.1115711611148008e-18 -1.0
  outer loop
    vertex 29.500000000000004 8.497961249874402 0.0
    vertex 35.99999999999999 44.5 -1.4099832412739487e-15
    vertex 34.5 8.999999999999998 0.0
  endloop
endfacet
facet normal -1.011951917386907e-17 -1.1115711611148008e-18 -1.0
  outer loop
    vertex 35.99999999999999 44.5 -1.4099832412739487e-15
    vertex 37.49999999999999 50.99999999999997 0.0
    vertex 37.49999999999999 44.5 -1.4099832412739487e-15
  endloop
endfacet
facet normal -1.011951917386907e-17 -1.1115711611148008e-18 -1.0
  outer loop
    vertex 35.99999999999999 44.5 -1.4099832412739487e-15
    vertex 37.49999999999999 12.0 0.0
    vertex 34.5 8.999999999999998 0.0
  endloop
endfacet
facet normal -1.011951917386907e-17 -1.1115711611148008e-18 -1.0
  outer loop
    vertex 37.49999999999999 12.0 0.0
    vertex 35.99999999999999 44.5 -1.4099832412739487e-15
    vertex 37.49999999999999 40.50000000000001 1.4099832412739487e-15
  endloop
endfacet
facet normal -1.011951917386907e-17 -1.1115711611148008e-18 -1.0
  outer loop
    vertex 29.500000000000004 8.497961249874402 0.0
    vertex 11.499999999999998 1.9999999999999998 0.0
    vertex 4.999999999999999 8.497961249874402 0.0
  endloop
endfacet
facet normal -1.011951917386907e-17 -1.1115711611148008e-18 -1.0
  outer loop
    vertex 11.499999999999998 1.9999999999999998 0.0
    vertex 29.500000000000004 8.497961249874402 0.0
    vertex 23.499999999999996 1.9999999999999998 0.0
  endloop
endfacet
facet normal -1.011951917386907e-17 -1.1115711611148008e-18 -1.0
  outer loop
    vertex 23.499999999999996 1.9999999999999998 0.0
    vertex 29.500000000000004 8.497961249874402 0.0
    vertex 23.499999999999996 0.0 0.0
  endloop
endfacet
facet normal -1.011951917386907e-17 -1.1115711611148008e-18 -1.0
  outer loop
    vertex 23.499999999999996 0.0 0.0
    vertex 29.500000000000004 8.497961249874402 0.0
    vertex 34.5 0.0 0.0
  endloop
endfacet
facet normal -1.011951917386907e-17 -1.1115711611148008e-18 -1.0
  outer loop
    vertex 34.5 0.0 0.0
    vertex 29.500000000000004 8.497961249874402 0.0
    vertex 34.5 8.999999999999998 0.0
  endloop
endfacet
facet normal -1.011951917386907e-17 -1.1115711611148008e-18 -1.0
  outer loop
    vertex 4.999999999999999 51.0 0.0
    vertex -3.0 44.50000000000001 0.0
    vertex -3.0 51.0 0.0
  endloop
endfacet
facet normal -1.011951917386907e-17 -1.1115711611148008e-18 -1.0
  outer loop
    vertex -3.0 44.50000000000001 0.0
    vertex 4.999999999999999 51.0 0.0
    vertex -1.4999999999999987 44.5 0.0
  endloop
endfacet
facet normal -1.011951917386907e-17 -1.1115711611148008e-18 -1.0
  outer loop
    vertex -1.4999999999999987 44.5 0.0
    vertex 4.999999999999999 51.0 0.0
    vertex 0.0 9.0 0.0
  endloop
endfacet
facet normal -1.011951917386907e-17 -1.1115711611148008e-18 -1.0
  outer loop
    vertex 0.0 9.0 0.0
    vertex 4.999999999999999 51.0 0.0
    vertex 0.0 0.0 0.0
  endloop
endfacet
facet normal -1.011951917386907e-17 -1.1115711611148008e-18 -1.0
  outer loop
    vertex 0.0 0.0 0.0
    vertex 4.999999999999999 51.0 0.0
    vertex 4.999999999999999 8.497961249874402 0.0
  endloop
endfacet
facet normal -1.011951917386907e-17 -1.1115711611148008e-18 -1.0
  outer loop
    vertex 0.0 0.0 0.0
    vertex 4.999999999999999 8.497961249874402 0.0
    vertex 11.499999999999998 0.0 0.0
  endloop
endfacet
facet normal -1.011951917386907e-17 -1.1115711611148008e-18 -1.0
  outer loop
    vertex 11.499999999999998 0.0 0.0
    vertex 4.999999999999999 8.497961249874402 0.0
    vertex 11.499999999999998 1.9999999999999998 0.0
  endloop
endfacet
facet normal -1.011951917386907e-17 -1.1115711611148008e-18 -1.0
  outer loop
    vertex -1.4999999999999987 44.5 0.0
    vertex -3.0 12.0 0.0
    vertex -3.0 40.50000000000001 1.4099832412739487e-15
  endloop
endfacet
facet normal -1.011951917386907e-17 -1.1115711611148008e-18 -1.0
  outer loop
    vertex -3.0 12.0 0.0
    vertex -1.4999999999999987 44.5 0.0
    vertex 0.0 9.0 0.0
  endloop
endfacet
facet normal 0.0 -1.0 0.0
  outer loop
    vertex 34.5 0.0 9.999999999999998
    vertex 23.499999999999996 0.0 0.0
    vertex 34.5 0.0 0.0
  endloop
endfacet
facet normal 0.0 -1.0 0.0
  outer loop
    vertex 23.499999999999996 0.0 0.0
    vertex 34.5 0.0 9.999999999999998
    vertex 23.499999999999996 0.0 7.300000000000003
  endloop
endfacet
facet normal 0.0 -1.0 0.0
  outer loop
    vertex 23.499999999999996 0.0 7.300000000000003
    vertex 34.5 0.0 9.999999999999998
    vertex 11.499999999999998 0.0 7.300000000000003
  endloop
endfacet
facet normal 0.0 -1.0 0.0
  outer loop
    vertex 11.499999999999998 0.0 7.300000000000003
    vertex 0.0 0.0 0.0
    vertex 11.499999999999998 0.0 0.0
  endloop
endfacet
facet normal 0.0 -1.0 0.0
  outer loop
    vertex 0.0 0.0 0.0
    vertex 11.499999999999998 0.0 7.300000000000003
    vertex 0.0 0.0 9.999999999999998
  endloop
endfacet
facet normal 0.0 -1.0 0.0
  outer loop
    vertex 0.0 0.0 9.999999999999998
    vertex 11.499999999999998 0.0 7.300000000000003
    vertex 34.5 0.0 9.999999999999998
  endloop
endfacet
facet normal -1.0 0.0 0.0
  outer loop
    vertex 0.0 3.497961249874389 9.999999999999998
    vertex 0.0 0.0 0.0
    vertex 0.0 0.0 9.999999999999998
  endloop
endfacet
facet normal -1.0 0.0 0.0
  outer loop
    vertex 0.0 0.0 0.0
    vertex 0.0 3.497961249874389 9.999999999999998
    vertex 0.0 3.497961249874389 7.999999999999999
  endloop
endfacet
facet normal -1.0 0.0 0.0
  outer loop
    vertex 0.0 0.0 0.0
    vertex 0.0 3.497961249874389 7.999999999999999
    vertex 0.0 9.0 0.0
  endloop
endfacet
facet normal -1.0 0.0 0.0
  outer loop
    vertex 0.0 9.0 0.0
    vertex 0.0 3.497961249874389 7.999999999999999
    vertex 0.0 9.0 7.999999999999999
  endloop
endfacet
facet normal -3.120611003944507e-18 -3.395192567136021e-16 1.0
  outer loop
    vertex 23.499999999999996 1.9989806249371957 3.0000000000000018
    vertex 11.499999999999998 3.49796124987439 3.0000000000000027
    vertex 11.499999999999998 1.9989806249371957 3.0000000000000013
  endloop
endfacet
facet normal -3.120611003944507e-18 -3.395192567136021e-16 1.0
  outer loop
    vertex 11.499999999999998 3.49796124987439 3.0000000000000027
    vertex 4.5 6.497961249874388 3.0000000000000036
    vertex 4.5 3.497961249874389 3.0000000000000013
  endloop
endfacet
facet normal -3.120611003944507e-18 -3.395192567136021e-16 1.0
  outer loop
    vertex 4.5 6.497961249874388 3.0000000000000036
    vertex 11.499999999999998 3.49796124987439 3.0000000000000027
    vertex 4.5 8.497961249874388 3.0000000000000036
  endloop
endfacet
facet normal -3.120611003944507e-18 -3.395192567136021e-16 1.0
  outer loop
    vertex 4.5 8.497961249874388 3.0000000000000036
    vertex 11.499999999999998 3.49796124987439 3.0000000000000027
    vertex 4.999999999999999 8.497961249874388 3.0000000000000036
  endloop
endfacet
facet normal -3.120611003944507e-18 -3.395192567136021e-16 1.0
  outer loop
    vertex 4.999999999999999 8.497961249874388 3.0000000000000036
    vertex 11.499999999999998 3.49796124987439 3.0000000000000027
    vertex 29.500000000000004 8.49796124987439 3.0000000000000036
  endloop
endfacet
facet normal -3.120611003944507e-18 -3.395192567136021e-16 1.0
  outer loop
    vertex 29.500000000000004 8.49796124987439 3.0000000000000036
    vertex 11.499999999999998 3.49796124987439 3.0000000000000027
    vertex 23.499999999999996 3.497961249874391 3.0000000000000027
  endloop
endfacet
facet normal -3.120611003944507e-18 -3.395192567136021e-16 1.0
  outer loop
    vertex 23.499999999999996 3.497961249874391 3.0000000000000027
    vertex 11.499999999999998 3.49796124987439 3.0000000000000027
    vertex 23.499999999999996 1.9989806249371957 3.0000000000000018
  endloop
endfacet
facet normal -3.120611003944507e-18 -3.395192567136021e-16 1.0
  outer loop
    vertex 29.500000000000004 8.49796124987439 3.0000000000000036
    vertex 23.499999999999996 3.497961249874391 3.0000000000000027
    vertex 30.0 3.49796124987439 3.0000000000000013
  endloop
endfacet
facet normal -3.120611003944507e-18 -3.395192567136021e-16 1.0
  outer loop
    vertex 29.500000000000004 8.49796124987439 3.0000000000000036
    vertex 30.0 3.49796124987439 3.0000000000000013
    vertex 30.0 8.49796124987439 3.0000000000000036
  endloop
endfacet
facet normal -3.120611003944507e-18 -3.395192567136021e-16 1.0
  outer loop
    vertex 30.0 8.49796124987439 3.0000000000000036
    vertex 30.0 3.49796124987439 3.0000000000000013
    vertex 30.0 6.4979612498743915 3.0000000000000036
  endloop
endfacet
facet normal -5.529346044211563e-17 1.0 -3.7104822138788165e-16
  outer loop
    vertex 4.5 3.497961249874389 7.999999999999999
    vertex 30.0 3.4979612498743897 6.100000000000001
    vertex 4.5 3.497961249874388 6.100000000000001
  endloop
endfacet
facet normal -5.529346044211563e-17 1.0 -3.7104822138788165e-16
  outer loop
    vertex 30.0 3.4979612498743897 6.100000000000001
    vertex 4.5 3.497961249874389 7.999999999999999
    vertex 30.0 3.49796124987439 7.999999999999999
  endloop
endfacet
facet normal -5.529346044211563e-17 1.0 -3.7104822138788165e-16
  outer loop
    vertex 30.0 3.49796124987439 7.999999999999999
    vertex 4.5 3.497961249874389 7.999999999999999
    vertex 4.5 3.497961249874389 9.999999999999998
  endloop
endfacet
facet normal -5.529346044211563e-17 1.0 -3.7104822138788165e-16
  outer loop
    vertex 30.0 3.49796124987439 7.999999999999999
    vertex 4.5 3.497961249874389 9.999999999999998
    vertex 30.0 3.49796124987439 9.999999999999998
  endloop
endfacet
facet normal -1.0 8.30272975825637e-17 1.0445559586909707e-16
  outer loop
    vertex 31.5 50.99999999999997 7.999999999999999
    vertex 31.499999999999993 8.49796124987439 6.100000000000001
    vertex 31.5 8.49796124987439 7.999999999999999
  endloop
endfacet
facet normal -1.0 8.30272975825637e-17 1.0445559586909707e-16
  outer loop
    vertex 31.499999999999993 8.49796124987439 6.100000000000001
    vertex 31.499999999999993 1.9979612498743902 4.000000000000002
    vertex 31.499999999999993 1.9979612498743895 6.1000000000000005
  endloop
endfacet
facet normal -1.0 8.30272975825637e-17 1.0445559586909707e-16
  outer loop
    vertex 31.499999999999993 1.9979612498743902 4.000000000000002
    vertex 31.499999999999993 8.49796124987439 6.100000000000001
    vertex 31.499999999999993 6.4979612498743915 4.000000000000004
  endloop
endfacet
facet normal -1.0 8.30272975825637e-17 1.0445559586909707e-16
  outer loop
    vertex 31.499999999999993 6.4979612498743915 4.000000000000004
    vertex 31.499999999999993 8.49796124987439 6.100000000000001
    vertex 31.5 6.4979612498743915 3.0000000000000036
  endloop
endfacet
facet normal -1.0 8.30272975825637e-17 1.0445559586909707e-16
  outer loop
    vertex 31.5 6.4979612498743915 3.0000000000000036
    vertex 31.499999999999993 8.49796124987439 6.100000000000001
    vertex 31.5 50.99999999999997 3.0000000000000013
  endloop
endfacet
facet normal -1.0 8.30272975825637e-17 1.0445559586909707e-16
  outer loop
    vertex 31.5 50.99999999999997 3.0000000000000013
    vertex 31.499999999999993 8.49796124987439 6.100000000000001
    vertex 31.5 50.99999999999997 7.999999999999999
  endloop
endfacet
facet normal 1.0 -0.0 -0.0
  outer loop
    vertex 34.5 8.999999999999998 0.0
    vertex 34.5 0.0 9.999999999999998
    vertex 34.5 0.0 0.0
  endloop
endfacet
facet normal 1.0 -0.0 -0.0
  outer loop
    vertex 34.5 0.0 9.999999999999998
    vertex 34.5 8.999999999999998 0.0
    vertex 34.5 3.49796124987439 7.999999999999999
  endloop
endfacet
facet normal 1.0 -0.0 -0.0
  outer loop
    vertex 34.5 3.49796124987439 7.999999999999999
    vertex 34.5 8.999999999999998 0.0
    vertex 34.5 8.999999999999998 7.999999999999999
  endloop
endfacet
facet normal 1.0 -0.0 -0.0
  outer loop
    vertex 34.5 3.49796124987439 9.999999999999998
    vertex 34.5 0.0 9.999999999999998
    vertex 34.5 3.49796124987439 7.999999999999999
  endloop
endfacet
facet normal -1.0 0.0 0.0
  outer loop
    vertex -3.0 44.50000000000002 3.0
    vertex -3.0 51.0 0.0
    vertex -3.0 44.50000000000001 0.0
  endloop
endfacet
facet normal -1.0 0.0 0.0
  outer loop
    vertex -3.0 51.0 0.0
    vertex -3.0 44.50000000000002 3.0
    vertex -3.0 51.0 3.0
  endloop
endfacet
facet normal -0.7071067811865476 -0.7071067811865475 0.0
  outer loop
    vertex -3.0 12.0 7.999999999999999
    vertex 0.0 9.0 0.0
    vertex 0.0 9.0 7.999999999999999
  endloop
endfacet
facet normal -0.7071067811865476 -0.7071067811865475 0.0
  outer loop
    vertex 0.0 9.0 0.0
    vertex -3.0 12.0 7.999999999999999
    vertex -3.0 12.0 0.0
  endloop
endfacet
facet normal 1.0 -0.0 -0.0
  outer loop
    vertex 37.49999999999999 40.50000000000001 1.4099832412739487e-15
    vertex 37.49999999999999 12.0 7.999999999999999
    vertex 37.49999999999999 12.0 0.0
  endloop
endfacet
facet normal 1.0 -0.0 -0.0
  outer loop
    vertex 37.49999999999999 12.0 7.999999999999999
    vertex 37.49999999999999 40.50000000000001 1.4099832412739487e-15
    vertex 37.49999999999999 40.50000000000001 8.000000000000002
  endloop
endfacet
facet normal 0.7071067811865482 -0.7071067811865469 -0.0
  outer loop
    vertex 37.49999999999999 12.0 0.0
    vertex 34.5 8.999999999999998 7.999999999999999
    vertex 34.5 8.999999999999998 0.0
  endloop
endfacet
facet normal 0.7071067811865482 -0.7071067811865469 -0.0
  outer loop
    vertex 34.5 8.999999999999998 7.999999999999999
    vertex 37.49999999999999 12.0 0.0
    vertex 37.49999999999999 12.0 7.999999999999999
  endloop
endfacet
facet normal 0.0 1.0 0.0
  outer loop
    vertex 29.500000000000004 50.99999999999997 3.0000000000000013
    vertex 37.49999999999999 50.99999999999997 0.0
    vertex 29.500000000000004 50.99999999999997 0.0
  endloop
endfacet
facet normal 0.0 1.0 0.0
  outer loop
    vertex 37.49999999999999 50.99999999999997 0.0
    vertex 29.500000000000004 50.99999999999997 3.0000000000000013
    vertex 35.99999999999999 50.99999999999997 3.0
  endloop
endfacet
facet normal 0.0 1.0 0.0
  outer loop
    vertex 35.99999999999999 50.99999999999997 3.0
    vertex 29.500000000000004 50.99999999999997 3.0000000000000013
    vertex 31.5 50.99999999999997 3.0000000000000013
  endloop
endfacet
facet normal 0.0 1.0 0.0
  outer loop
    vertex 35.99999999999999 50.99999999999997 3.0
    vertex 31.5 50.99999999999997 3.0000000000000013
    vertex 35.99999999999999 50.99999999999997 6.0
  endloop
endfacet
facet normal 0.0 1.0 0.0
  outer loop
    vertex 35.99999999999999 50.99999999999997 6.0
    vertex 31.5 50.99999999999997 3.0000000000000013
    vertex 31.5 50.99999999999997 7.999999999999999
  endloop
endfacet
facet normal 0.0 1.0 0.0
  outer loop
    vertex 35.99999999999999 50.99999999999997 6.0
    vertex 37.49999999999999 50.99999999999997 7.999999999999999
    vertex 37.49999999999999 50.99999999999997 5.999999999999999
  endloop
endfacet
facet normal 0.0 1.0 0.0
  outer loop
    vertex 37.49999999999999 50.99999999999997 7.999999999999999
    vertex 35.99999999999999 50.99999999999997 6.0
    vertex 31.5 50.99999999999997 7.999999999999999
  endloop
endfacet
facet normal 0.0 1.0 0.0
  outer loop
    vertex 37.49999999999999 50.99999999999997 3.0
    vertex 37.49999999999999 50.99999999999997 0.0
    vertex 35.99999999999999 50.99999999999997 3.0
  endloop
endfacet
facet normal -4.947309618505084e-17 1.0 4.22994972382184e-15
  outer loop
    vertex 4.999999999999999 8.497961249874388 3.0000000000000036
    vertex 29.500000000000004 8.497961249874402 0.0
    vertex 4.999999999999999 8.497961249874402 0.0
  endloop
endfacet
facet normal -4.947309618505084e-17 1.0 4.22994972382184e-15
  outer loop
    vertex 29.500000000000004 8.497961249874402 0.0
    vertex 4.999999999999999 8.497961249874388 3.0000000000000036
    vertex 29.500000000000004 8.49796124987439 3.0000000000000036
  endloop
endfacet
facet normal -1.0 0.0 0.0
  outer loop
    vertex 30.0 6.4979612498743915 4.000000000000004
    vertex 30.0 3.49796124987439 3.0000000000000013
    vertex 30.0 3.49796124987439 4.000000000000003
  endloop
endfacet
facet normal -1.0 0.0 0.0
  outer loop
    vertex 30.0 3.49796124987439 3.0000000000000013
    vertex 30.0 6.4979612498743915 4.000000000000004
    vertex 30.0 6.4979612498743915 3.0000000000000036
  endloop
endfacet
facet normal -0.0 1.0 -0.0
  outer loop
    vertex 30.0 8.49796124987439 7.999999999999999
    vertex 31.499999999999993 8.49796124987439 6.100000000000001
    vertex 30.0 8.49796124987439 6.100000000000001
  endloop
endfacet
facet normal -0.0 1.0 -0.0
  outer loop
    vertex 31.499999999999993 8.49796124987439 6.100000000000001
    vertex 30.0 8.49796124987439 7.999999999999999
    vertex 31.5 8.49796124987439 7.999999999999999
  endloop
endfacet
facet normal -1.0 0.0 0.0
  outer loop
    vertex 29.500000000000004 50.99999999999997 3.0000000000000013
    vertex 29.500000000000004 8.497961249874402 0.0
    vertex 29.500000000000004 8.49796124987439 3.0000000000000036
  endloop
endfacet
facet normal -1.0 0.0 0.0
  outer loop
    vertex 29.500000000000004 8.497961249874402 0.0
    vertex 29.500000000000004 50.99999999999997 3.0000000000000013
    vertex 29.500000000000004 50.99999999999997 0.0
  endloop
endfacet
facet normal 0.0 4.5975676717266115e-17 1.0
  outer loop
    vertex 31.5 6.4979612498743915 3.0000000000000036
    vertex 30.0 8.49796124987439 3.0000000000000036
    vertex 30.0 6.4979612498743915 3.0000000000000036
  endloop
endfacet
facet normal 0.0 4.5975676717266115e-17 1.0
  outer loop
    vertex 30.0 8.49796124987439 3.0000000000000036
    vertex 29.500000000000004 50.99999999999997 3.0000000000000013
    vertex 29.500000000000004 8.49796124987439 3.0000000000000036
  endloop
endfacet
facet normal 0.0 4.5975676717266115e-17 1.0
  outer loop
    vertex 29.500000000000004 50.99999999999997 3.0000000000000013
    vertex 30.0 8.49796124987439 3.0000000000000036
    vertex 31.5 50.99999999999997 3.0000000000000013
  endloop
endfacet
facet normal 0.0 4.5975676717266115e-17 1.0
  outer loop
    vertex 31.5 50.99999999999997 3.0000000000000013
    vertex 30.0 8.49796124987439 3.0000000000000036
    vertex 31.5 6.4979612498743915 3.0000000000000036
  endloop
endfacet
facet normal 1.0 -0.0 -0.0
  outer loop
    vertex 4.5 8.497961249874388 6.100000000000003
    vertex 4.5 3.497961249874389 7.999999999999999
    vertex 4.5 3.497961249874388 6.100000000000001
  endloop
endfacet
facet normal 1.0 -0.0 -0.0
  outer loop
    vertex 4.5 3.497961249874389 7.999999999999999
    vertex 4.5 8.497961249874388 6.100000000000003
    vertex 4.5 8.497961249874388 7.999999999999999
  endloop
endfacet
facet normal 1.0 0.0 0.0
  outer loop
    vertex 4.999999999999999 8.497961249874402 0.0
    vertex 4.999999999999999 51.0 3.0000000000000013
    vertex 4.999999999999999 8.497961249874388 3.0000000000000036
  endloop
endfacet
facet normal 1.0 0.0 0.0
  outer loop
    vertex 4.999999999999999 51.0 3.0000000000000013
    vertex 4.999999999999999 8.497961249874402 0.0
    vertex 4.999999999999999 51.0 0.0
  endloop
endfacet
facet normal 0.0 4.5975676717266115e-17 1.0
  outer loop
    vertex 4.5 6.497961249874388 3.0000000000000036
    vertex 3.0 51.0 3.0000000000000013
    vertex 3.0 6.497961249874388 3.0000000000000036
  endloop
endfacet
facet normal 0.0 4.5975676717266115e-17 1.0
  outer loop
    vertex 3.0 51.0 3.0000000000000013
    vertex 4.5 6.497961249874388 3.0000000000000036
    vertex 4.5 8.497961249874388 3.0000000000000036
  endloop
endfacet
facet normal 0.0 4.5975676717266115e-17 1.0
  outer loop
    vertex 3.0 51.0 3.0000000000000013
    vertex 4.5 8.497961249874388 3.0000000000000036
    vertex 4.999999999999999 51.0 3.0000000000000013
  endloop
endfacet
facet normal 0.0 4.5975676717266115e-17 1.0
  outer loop
    vertex 4.999999999999999 51.0 3.0000000000000013
    vertex 4.5 8.497961249874388 3.0000000000000036
    vertex 4.999999999999999 8.497961249874388 3.0000000000000036
  endloop
endfacet
facet normal 5.423012466438264e-17 1.0 3.524958103184868e-16
  outer loop
    vertex 23.499999999999996 3.497961249874391 3.0000000000000027
    vertex 30.0 3.49796124987439 4.000000000000003
    vertex 30.0 3.49796124987439 3.0000000000000013
  endloop
endfacet
facet normal 5.423012466438264e-17 1.0 3.524958103184868e-16
  outer loop
    vertex 30.0 3.49796124987439 4.000000000000003
    vertex 23.499999999999996 3.497961249874391 3.0000000000000027
    vertex 23.499999999999996 3.49796124987439 4.000000000000003
  endloop
endfacet
facet normal -1.0 0.0 0.0
  outer loop
    vertex 30.0 3.49796124987439 7.999999999999999
    vertex 30.0 8.49796124987439 6.100000000000001
    vertex 30.0 3.4979612498743897 6.100000000000001
  endloop
endfacet
facet normal -1.0 0.0 0.0
  outer loop
    vertex 30.0 8.49796124987439 6.100000000000001
    vertex 30.0 3.49796124987439 7.999999999999999
    vertex 30.0 8.49796124987439 7.999999999999999
  endloop
endfacet
facet normal -4.713720571780237e-17 -2.2559718610398793e-16 1.0
  outer loop
    vertex 3.000000000000005 1.9979612498743895 4.000000000000001
    vertex 4.500000000000001 6.497961249874388 4.000000000000003
    vertex 3.0000000000000036 6.497961249874388 4.000000000000002
  endloop
endfacet
facet normal -4.713720571780237e-17 -2.2559718610398793e-16 1.0
  outer loop
    vertex 4.500000000000001 6.497961249874388 4.000000000000003
    vertex 3.000000000000005 1.9979612498743895 4.000000000000001
    vertex 4.500000000000002 3.4979612498743897 4.000000000000003
  endloop
endfacet
facet normal -4.713720571780237e-17 -2.2559718610398793e-16 1.0
  outer loop
    vertex 4.500000000000002 3.4979612498743897 4.000000000000003
    vertex 3.000000000000005 1.9979612498743895 4.000000000000001
    vertex 11.499999999999998 1.998980624937195 4.000000000000001
  endloop
endfacet
facet normal -4.713720571780237e-17 -2.2559718610398793e-16 1.0
  outer loop
    vertex 4.500000000000002 3.4979612498743897 4.000000000000003
    vertex 11.499999999999998 1.998980624937195 4.000000000000001
    vertex 11.499999999999998 3.4979612498743897 4.000000000000003
  endloop
endfacet
facet normal 0.0 0.0 -1.0
  outer loop
    vertex 31.499999999999993 8.49796124987439 6.100000000000001
    vertex 30.0 3.4979612498743897 6.100000000000001
    vertex 30.0 8.49796124987439 6.100000000000001
  endloop
endfacet
facet normal 0.0 0.0 -1.0
  outer loop
    vertex 30.0 3.4979612498743897 6.100000000000001
    vertex 31.499999999999993 8.49796124987439 6.100000000000001
    vertex 30.0 1.9979612498743895 6.1000000000000005
  endloop
endfacet
facet normal 0.0 0.0 -1.0
  outer loop
    vertex 30.0 1.9979612498743895 6.1000000000000005
    vertex 31.499999999999993 8.49796124987439 6.100000000000001
    vertex 31.499999999999993 1.9979612498743895 6.1000000000000005
  endloop
endfacet
facet normal 1.0 7.049916206369766e-17 -1.057487430955462e-15
  outer loop
    vertex 4.5 6.497961249874388 3.0000000000000036
    vertex 4.500000000000002 3.4979612498743897 4.000000000000003
    vertex 4.5 3.497961249874389 3.0000000000000013
  endloop
endfacet
facet normal 1.0 7.049916206369766e-17 -1.057487430955462e-15
  outer loop
    vertex 4.500000000000002 3.4979612498743897 4.000000000000003
    vertex 4.5 6.497961249874388 3.0000000000000036
    vertex 4.500000000000001 6.497961249874388 4.000000000000003
  endloop
endfacet
facet normal 4.699944137579839e-16 4.229949723821846e-16 -1.0
  outer loop
    vertex 4.5 8.497961249874388 6.100000000000003
    vertex 3.0000000000000036 1.997961249874388 6.1000000000000005
    vertex 3.0000000000000036 8.497961249874388 6.100000000000003
  endloop
endfacet
facet normal 4.699944137579839e-16 4.229949723821846e-16 -1.0
  outer loop
    vertex 3.0000000000000036 1.997961249874388 6.1000000000000005
    vertex 4.5 8.497961249874388 6.100000000000003
    vertex 4.5 1.997961249874388 6.1000000000000005
  endloop
endfacet
facet normal 4.699944137579839e-16 4.229949723821846e-16 -1.0
  outer loop
    vertex 4.5 1.997961249874388 6.1000000000000005
    vertex 4.5 8.497961249874388 6.100000000000003
    vertex 4.5 3.497961249874388 6.100000000000001
  endloop
endfacet
facet normal -0.0 1.0 -0.0
  outer loop
    vertex 3.0 8.497961249874388 7.999999999999999
    vertex 4.5 8.497961249874388 6.100000000000003
    vertex 3.0000000000000036 8.497961249874388 6.100000000000003
  endloop
endfacet
facet normal -0.0 1.0 -0.0
  outer loop
    vertex 4.5 8.497961249874388 6.100000000000003
    vertex 3.0 8.497961249874388 7.999999999999999
    vertex 4.5 8.497961249874388 7.999999999999999
  endloop
endfacet
facet normal 1.0 5.805037915542477e-17 1.2070090425442747e-16
  outer loop
    vertex 3.0 51.0 3.0000000000000013
    vertex 3.0000000000000036 6.497961249874388 4.000000000000002
    vertex 3.0 6.497961249874388 3.0000000000000036
  endloop
endfacet
facet normal 1.0 5.805037915542477e-17 1.2070090425442747e-16
  outer loop
    vertex 3.0000000000000036 6.497961249874388 4.000000000000002
    vertex 3.0 51.0 3.0000000000000013
    vertex 3.0000000000000036 8.497961249874388 6.100000000000003
  endloop
endfacet
facet normal 1.0 5.805037915542477e-17 1.2070090425442747e-16
  outer loop
    vertex 3.0000000000000036 8.497961249874388 6.100000000000003
    vertex 3.0 51.0 3.0000000000000013
    vertex 3.0 8.497961249874388 7.999999999999999
  endloop
endfacet
facet normal 1.0 5.805037915542477e-17 1.2070090425442747e-16
  outer loop
    vertex 3.0 8.497961249874388 7.999999999999999
    vertex 3.0 51.0 3.0000000000000013
    vertex 3.0 51.0 7.999999999999999
  endloop
endfacet
facet normal 1.0 5.805037915542477e-17 1.2070090425442747e-16
  outer loop
    vertex 3.000000000000005 1.9979612498743895 4.000000000000001
    vertex 3.0000000000000036 8.497961249874388 6.100000000000003
    vertex 3.0000000000000036 1.997961249874388 6.1000000000000005
  endloop
endfacet
facet normal 1.0 5.805037915542477e-17 1.2070090425442747e-16
  outer loop
    vertex 3.0000000000000036 8.497961249874388 6.100000000000003
    vertex 3.000000000000005 1.9979612498743895 4.000000000000001
    vertex 3.0000000000000036 6.497961249874388 4.000000000000002
  endloop
endfacet
facet normal 0.00013209505583222466 0.999999990869776 2.848410907466969e-05
  outer loop
    vertex 23.499999999999996 1.9989806249371942 6.1000000000000005
    vertex 31.499999999999993 1.9979612498743902 4.000000000000002
    vertex 23.499999999999996 1.998980624937195 4.000000000000002
  endloop
endfacet
facet normal 0.00013209505583222466 0.999999990869776 2.848410907466969e-05
  outer loop
    vertex 31.499999999999993 1.9979612498743902 4.000000000000002
    vertex 23.499999999999996 1.9989806249371942 6.1000000000000005
    vertex 31.499999999999993 1.9979612498743895 6.1000000000000005
  endloop
endfacet
facet normal 0.00013209505583222466 0.999999990869776 2.848410907466969e-05
  outer loop
    vertex 31.499999999999993 1.9979612498743895 6.1000000000000005
    vertex 23.499999999999996 1.9989806249371942 6.1000000000000005
    vertex 30.0 1.9979612498743895 6.1000000000000005
  endloop
endfacet
facet normal -1.6593446242362237e-22 4.701539914573779e-16 -1.0
  outer loop
    vertex 30.0 3.4979612498743897 6.100000000000001
    vertex 4.5 1.997961249874388 6.1000000000000005
    vertex 4.5 3.497961249874388 6.100000000000001
  endloop
endfacet
facet normal -1.6593446242362237e-22 4.701539914573779e-16 -1.0
  outer loop
    vertex 4.5 1.997961249874388 6.1000000000000005
    vertex 30.0 3.4979612498743897 6.100000000000001
    vertex 11.499999999999998 1.9989806249371942 6.1000000000000005
  endloop
endfacet
facet normal -1.6593446242362237e-22 4.701539914573779e-16 -1.0
  outer loop
    vertex 11.499999999999998 1.9989806249371942 6.1000000000000005
    vertex 30.0 3.4979612498743897 6.100000000000001
    vertex 23.499999999999996 1.9989806249371942 6.1000000000000005
  endloop
endfacet
facet normal -1.6593446242362237e-22 4.701539914573779e-16 -1.0
  outer loop
    vertex 23.499999999999996 1.9989806249371942 6.1000000000000005
    vertex 30.0 3.4979612498743897 6.100000000000001
    vertex 30.0 1.9979612498743895 6.1000000000000005
  endloop
endfacet
facet normal 0.0 1.0 0.0
  outer loop
    vertex 30.0 6.4979612498743915 4.000000000000004
    vertex 31.5 6.4979612498743915 3.0000000000000036
    vertex 30.0 6.4979612498743915 3.0000000000000036
  endloop
endfacet
facet normal 0.0 1.0 0.0
  outer loop
    vertex 31.5 6.4979612498743915 3.0000000000000036
    vertex 30.0 6.4979612498743915 4.000000000000004
    vertex 31.499999999999993 6.4979612498743915 4.000000000000004
  endloop
endfacet
facet normal 0.0 1.0 0.0
  outer loop
    vertex 3.0000000000000036 6.497961249874388 4.000000000000002
    vertex 4.5 6.497961249874388 3.0000000000000036
    vertex 3.0 6.497961249874388 3.0000000000000036
  endloop
endfacet
facet normal 0.0 1.0 0.0
  outer loop
    vertex 4.5 6.497961249874388 3.0000000000000036
    vertex 3.0000000000000036 6.497961249874388 4.000000000000002
    vertex 4.500000000000001 6.497961249874388 4.000000000000003
  endloop
endfacet
facet normal -1.879977655031928e-15 -1.0 2.8199664825478963e-15
  outer loop
    vertex 37.49999999999999 44.50000000000001 3.0
    vertex 35.99999999999999 44.5 -1.4099832412739487e-15
    vertex 37.49999999999999 44.5 -1.4099832412739487e-15
  endloop
endfacet
facet normal -1.879977655031928e-15 -1.0 2.8199664825478963e-15
  outer loop
    vertex 35.99999999999999 44.5 -1.4099832412739487e-15
    vertex 37.49999999999999 44.50000000000001 3.0
    vertex 35.99999999999999 44.50000000000001 3.0
  endloop
endfacet
facet normal 0.9363291775690444 0.3511234415883922 -9.003104612313193e-18
  outer loop
    vertex 35.99999999999999 44.5 -1.4099832412739487e-15
    vertex 37.49999999999999 40.50000000000001 8.000000000000002
    vertex 37.49999999999999 40.50000000000001 1.4099832412739487e-15
  endloop
endfacet
facet normal 0.9363291775690444 0.3511234415883922 -9.003104612313193e-18
  outer loop
    vertex 37.49999999999999 40.50000000000001 8.000000000000002
    vertex 35.99999999999999 44.5 -1.4099832412739487e-15
    vertex 35.99999999999999 44.5 7.999999999999999
  endloop
endfacet
facet normal 0.9363291775690444 0.3511234415883922 -9.003104612313193e-18
  outer loop
    vertex 35.99999999999999 44.5 7.999999999999999
    vertex 35.99999999999999 44.5 -1.4099832412739487e-15
    vertex 35.99999999999999 44.50000000000001 3.0
  endloop
endfacet
facet normal 0.9363291775690444 0.3511234415883922 -9.003104612313193e-18
  outer loop
    vertex 35.99999999999999 44.5 7.999999999999999
    vertex 35.99999999999999 44.50000000000001 3.0
    vertex 35.99999999999999 44.50000000000001 6.0
  endloop
endfacet
facet normal 1.0 -0.0 -0.0
  outer loop
    vertex 37.49999999999999 44.50000000000001 5.999999999999999
    vertex 37.49999999999999 50.99999999999997 7.999999999999999
    vertex 37.49999999999999 44.5 7.999999999999999
  endloop
endfacet
facet normal 1.0 -0.0 -0.0
  outer loop
    vertex 37.49999999999999 50.99999999999997 7.999999999999999
    vertex 37.49999999999999 44.50000000000001 5.999999999999999
    vertex 37.49999999999999 50.99999999999997 5.999999999999999
  endloop
endfacet
facet normal -8.017578110160395e-17 -3.482865585406004e-18 1.0
  outer loop
    vertex 37.49999999999999 12.0 7.999999999999999
    vertex 35.99999999999999 44.5 7.999999999999999
    vertex 34.5 8.999999999999998 7.999999999999999
  endloop
endfacet
facet normal -8.017578110160395e-17 -3.482865585406004e-18 1.0
  outer loop
    vertex 35.99999999999999 44.5 7.999999999999999
    vertex 37.49999999999999 12.0 7.999999999999999
    vertex 37.49999999999999 40.50000000000001 8.000000000000002
  endloop
endfacet
facet normal -8.017578110160395e-17 -3.482865585406004e-18 1.0
  outer loop
    vertex 34.5 3.49796124987439 7.999999999999999
    vertex 30.0 8.49796124987439 7.999999999999999
    vertex 30.0 3.49796124987439 7.999999999999999
  endloop
endfacet
facet normal -8.017578110160395e-17 -3.482865585406004e-18 1.0
  outer loop
    vertex 30.0 8.49796124987439 7.999999999999999
    vertex 34.5 3.49796124987439 7.999999999999999
    vertex 31.5 8.49796124987439 7.999999999999999
  endloop
endfacet
facet normal -8.017578110160395e-17 -3.482865585406004e-18 1.0
  outer loop
    vertex 31.5 8.49796124987439 7.999999999999999
    vertex 34.5 3.49796124987439 7.999999999999999
    vertex 31.5 50.99999999999997 7.999999999999999
  endloop
endfacet
facet normal -8.017578110160395e-17 -3.482865585406004e-18 1.0
  outer loop
    vertex 31.5 50.99999999999997 7.999999999999999
    vertex 34.5 3.49796124987439 7.999999999999999
    vertex 34.5 8.999999999999998 7.999999999999999
  endloop
endfacet
facet normal -8.017578110160395e-17 -3.482865585406004e-18 1.0
  outer loop
    vertex 31.5 50.99999999999997 7.999999999999999
    vertex 34.5 8.999999999999998 7.999999999999999
    vertex 35.99999999999999 44.5 7.999999999999999
  endloop
endfacet
facet normal -8.017578110160395e-17 -3.482865585406004e-18 1.0
  outer loop
    vertex 31.5 50.99999999999997 7.999999999999999
    vertex 35.99999999999999 44.5 7.999999999999999
    vertex 37.49999999999999 50.99999999999997 7.999999999999999
  endloop
endfacet
facet normal -8.017578110160395e-17 -3.482865585406004e-18 1.0
  outer loop
    vertex 37.49999999999999 50.99999999999997 7.999999999999999
    vertex 35.99999999999999 44.5 7.999999999999999
    vertex 37.49999999999999 44.5 7.999999999999999
  endloop
endfacet
facet normal -0.9363291775690448 0.35112344158839137 -3.9613660294177964e-17
  outer loop
    vertex -1.4999999999999987 44.5 7.999999999999999
    vertex -3.0 40.50000000000001 1.4099832412739487e-15
    vertex -3.0 40.50000000000001 8.0
  endloop
endfacet
facet normal -0.9363291775690448 0.35112344158839137 -3.9613660294177964e-17
  outer loop
    vertex -3.0 40.50000000000001 1.4099832412739487e-15
    vertex -1.4999999999999987 44.5 7.999999999999999
    vertex -1.4999999999999987 44.5 0.0
  endloop
endfacet
facet normal -0.9363291775690448 0.35112344158839137 -3.9613660294177964e-17
  outer loop
    vertex -1.4999999999999987 44.5 0.0
    vertex -1.4999999999999987 44.5 7.999999999999999
    vertex -1.4999999999999998 44.50000000000002 6.0
  endloop
endfacet
facet normal -0.9363291775690448 0.35112344158839137 -3.9613660294177964e-17
  outer loop
    vertex -1.4999999999999987 44.5 0.0
    vertex -1.4999999999999998 44.50000000000002 6.0
    vertex -1.5 44.50000000000002 3.0
  endloop
endfacet
facet normal -1.0 -1.2368274046262707e-17 -8.447044265470832e-34
  outer loop
    vertex -3.0 40.50000000000001 8.0
    vertex -3.0 12.0 0.0
    vertex -3.0 12.0 7.999999999999999
  endloop
endfacet
facet normal -1.0 -1.2368274046262707e-17 -8.447044265470832e-34
  outer loop
    vertex -3.0 12.0 0.0
    vertex -3.0 40.50000000000001 8.0
    vertex -3.0 40.50000000000001 1.4099832412739487e-15
  endloop
endfacet
facet normal 0.0 1.0 0.0
  outer loop
    vertex -3.0 51.0 7.999999999999999
    vertex -1.4999999999999998 51.0 6.0
    vertex -3.0 51.0 6.0
  endloop
endfacet
facet normal 0.0 1.0 0.0
  outer loop
    vertex -1.4999999999999998 51.0 6.0
    vertex 3.0 51.0 3.0000000000000013
    vertex -1.5 51.0 3.0
  endloop
endfacet
facet normal 0.0 1.0 0.0
  outer loop
    vertex 3.0 51.0 3.0000000000000013
    vertex -1.4999999999999998 51.0 6.0
    vertex 3.0 51.0 7.999999999999999
  endloop
endfacet
facet normal 0.0 1.0 0.0
  outer loop
    vertex 3.0 51.0 7.999999999999999
    vertex -1.4999999999999998 51.0 6.0
    vertex -3.0 51.0 7.999999999999999
  endloop
endfacet
facet normal 0.0 1.0 0.0
  outer loop
    vertex -3.0 51.0 3.0
    vertex 4.999999999999999 51.0 0.0
    vertex -3.0 51.0 0.0
  endloop
endfacet
facet normal 0.0 1.0 0.0
  outer loop
    vertex 4.999999999999999 51.0 0.0
    vertex -3.0 51.0 3.0
    vertex 4.999999999999999 51.0 3.0000000000000013
  endloop
endfacet
facet normal 0.0 1.0 0.0
  outer loop
    vertex 4.999999999999999 51.0 3.0000000000000013
    vertex -3.0 51.0 3.0
    vertex -1.5 51.0 3.0
  endloop
endfacet
facet normal 0.0 1.0 0.0
  outer loop
    vertex 4.999999999999999 51.0 3.0000000000000013
    vertex -1.5 51.0 3.0
    vertex 3.0 51.0 3.0000000000000013
  endloop
endfacet
facet normal 0.0 0.0 -1.0
  outer loop
    vertex -1.4999999999999998 51.0 6.0
    vertex -3.0 44.50000000000002 6.0
    vertex -3.0 51.0 6.0
  endloop
endfacet
facet normal 0.0 0.0 -1.0
  outer loop
    vertex -3.0 44.50000000000002 6.0
    vertex -1.4999999999999998 51.0 6.0
    vertex -1.4999999999999998 44.50000000000002 6.0
  endloop
endfacet
facet normal -1.0 0.0 5.874930171974787e-17
  outer loop
    vertex -1.4999999999999998 51.0 6.0
    vertex -1.5 44.50000000000002 3.0
    vertex -1.4999999999999998 44.50000000000002 6.0
  endloop
endfacet
facet normal -1.0 0.0 5.874930171974787e-17
  outer loop
    vertex -1.5 44.50000000000002 3.0
    vertex -1.4999999999999998 51.0 6.0
    vertex -1.5 51.0 3.0
  endloop
endfacet
facet normal -2.349972068789915e-16 -0.0 1.0
  outer loop
    vertex -1.5 44.50000000000002 3.0
    vertex -3.0 51.0 3.0
    vertex -3.0 44.50000000000002 3.0
  endloop
endfacet
facet normal -2.349972068789915e-16 -0.0 1.0
  outer loop
    vertex -3.0 51.0 3.0
    vertex -1.5 44.50000000000002 3.0
    vertex -1.5 51.0 3.0
  endloop
endfacet
facet normal -1.0 0.0 0.0
  outer loop
    vertex -3.0 51.0 7.999999999999999
    vertex -3.0 44.50000000000002 6.0
    vertex -3.0 44.50000000000001 7.999999999999999
  endloop
endfacet
facet normal -1.0 0.0 0.0
  outer loop
    vertex -3.0 44.50000000000002 6.0
    vertex -3.0 51.0 7.999999999999999
    vertex -3.0 51.0 6.0
  endloop
endfacet
facet normal -1.879977655031932e-15 -1.0 -7.049916206369743e-15
  outer loop
    vertex -1.4999999999999987 44.5 7.999999999999999
    vertex -3.0 44.50000000000002 6.0
    vertex -1.4999999999999998 44.50000000000002 6.0
  endloop
endfacet
facet normal -1.879977655031932e-15 -1.0 -7.049916206369743e-15
  outer loop
    vertex -3.0 44.50000000000002 6.0
    vertex -1.4999999999999987 44.5 7.999999999999999
    vertex -3.0 44.50000000000001 7.999999999999999
  endloop
endfacet
facet normal -1.879977655031932e-15 -1.0 4.69994413757983e-15
  outer loop
    vertex -1.5 44.50000000000002 3.0
    vertex -3.0 44.50000000000001 0.0
    vertex -1.4999999999999987 44.5 0.0
  endloop
endfacet
facet normal -1.879977655031932e-15 -1.0 4.69994413757983e-15
  outer loop
    vertex -3.0 44.50000000000001 0.0
    vertex -1.5 44.50000000000002 3.0
    vertex -3.0 44.50000000000002 3.0
  endloop
endfacet
facet normal -0.0 -0.0 1.0
  outer loop
    vertex 37.49999999999999 44.50000000000001 3.0
    vertex 35.99999999999999 50.99999999999997 3.0
    vertex 35.99999999999999 44.50000000000001 3.0
  endloop
endfacet
facet normal -0.0 -0.0 1.0
  outer loop
    vertex 35.99999999999999 50.99999999999997 3.0
    vertex 37.49999999999999 44.50000000000001 3.0
    vertex 37.49999999999999 50.99999999999997 3.0
  endloop
endfacet
facet normal 1.0 -0.0 -0.0
  outer loop
    vertex 35.99999999999999 50.99999999999997 3.0
    vertex 35.99999999999999 44.50000000000001 6.0
    vertex 35.99999999999999 44.50000000000001 3.0
  endloop
endfacet
facet normal 1.0 -0.0 -0.0
  outer loop
    vertex 35.99999999999999 44.50000000000001 6.0
    vertex 35.99999999999999 50.99999999999997 3.0
    vertex 35.99999999999999 50.99999999999997 6.0
  endloop
endfacet
facet normal -4.69994413757982e-16 0.0 -1.0
  outer loop
    vertex 37.49999999999999 50.99999999999997 5.999999999999999
    vertex 35.99999999999999 44.50000000000001 6.0
    vertex 35.99999999999999 50.99999999999997 6.0
  endloop
endfacet
facet normal -4.69994413757982e-16 0.0 -1.0
  outer loop
    vertex 35.99999999999999 44.50000000000001 6.0
    vertex 37.49999999999999 50.99999999999997 5.999999999999999
    vertex 37.49999999999999 44.50000000000001 5.999999999999999
  endloop
endfacet
facet normal 1.0 -0.0 -0.0
  outer loop
    vertex 37.49999999999999 50.99999999999997 0.0
    vertex 37.49999999999999 44.50000000000001 3.0
    vertex 37.49999999999999 44.5 -1.4099832412739487e-15
  endloop
endfacet
facet normal 1.0 -0.0 -0.0
  outer loop
    vertex 37.49999999999999 44.50000000000001 3.0
    vertex 37.49999999999999 50.99999999999997 0.0
    vertex 37.49999999999999 50.99999999999997 3.0
  endloop
endfacet
facet normal -1.8799776550319286e-15 -1.0 -4.229949723821846e-15
  outer loop
    vertex 37.49999999999999 44.5 7.999999999999999
    vertex 35.99999999999999 44.50000000000001 6.0
    vertex 37.49999999999999 44.50000000000001 5.999999999999999
  endloop
endfacet
facet normal -1.8799776550319286e-15 -1.0 -4.229949723821846e-15
  outer loop
    vertex 35.99999999999999 44.50000000000001 6.0
    vertex 37.49999999999999 44.5 7.999999999999999
    vertex 35.99999999999999 44.5 7.999999999999999
  endloop
endfacet
facet normal -0.0 -0.0 -1.0
  outer loop
    vertex 23.499999999999996 1.9999999999999998 7.300000000000003
    vertex 11.499999999999998 0.0 7.300000000000003
    vertex 11.499999999999998 1.9999999999999998 7.300000000000003
  endloop
endfacet
facet normal -0.0 -0.0 -1.0
  outer loop
    vertex 11.499999999999998 0.0 7.300000000000003
    vertex 23.499999999999996 1.9999999999999998 7.300000000000003
    vertex 23.499999999999996 0.0 7.300000000000003
  endloop
endfacet
facet normal 3.961313302380833e-21 -0.9999999675273293 -0.0002548437574257562
  outer loop
    vertex 23.499999999999996 1.9989806249371957 3.0000000000000018
    vertex 11.499999999999998 1.9999999999999998 0.0
    vertex 23.499999999999996 1.9999999999999998 0.0
  endloop
endfacet
facet normal 3.961313302380833e-21 -0.9999999675273293 -0.0002548437574257562
  outer loop
    vertex 11.499999999999998 1.9999999999999998 0.0
    vertex 23.499999999999996 1.9989806249371957 3.0000000000000018
    vertex 11.499999999999998 1.9989806249371957 3.0000000000000013
  endloop
endfacet
facet normal 1.172783944550346e-35 -0.9999996391927236 0.0008494789125063488
  outer loop
    vertex 23.499999999999996 1.9999999999999998 7.300000000000003
    vertex 11.499999999999998 1.9989806249371942 6.1000000000000005
    vertex 23.499999999999996 1.9989806249371942 6.1000000000000005
  endloop
endfacet
facet normal 1.172783944550346e-35 -0.9999996391927236 0.0008494789125063488
  outer loop
    vertex 11.499999999999998 1.9989806249371942 6.1000000000000005
    vertex 23.499999999999996 1.9999999999999998 7.300000000000003
    vertex 11.499999999999998 1.9999999999999998 7.300000000000003
  endloop
endfacet
facet normal -0.00012419340287622577 0.9999999919317847 2.669137609276434e-05
  outer loop
    vertex 3.0000000000000036 1.997961249874388 6.1000000000000005
    vertex 11.499999999999998 1.998980624937195 4.000000000000001
    vertex 3.000000000000005 1.9979612498743895 4.000000000000001
  endloop
endfacet
facet normal -0.00012419340287622577 0.9999999919317847 2.669137609276434e-05
  outer loop
    vertex 11.499999999999998 1.998980624937195 4.000000000000001
    vertex 3.0000000000000036 1.997961249874388 6.1000000000000005
    vertex 11.499999999999998 1.9989806249371942 6.1000000000000005
  endloop
endfacet
facet normal -0.00012419340287622577 0.9999999919317847 2.669137609276434e-05
  outer loop
    vertex 11.499999999999998 1.9989806249371942 6.1000000000000005
    vertex 3.0000000000000036 1.997961249874388 6.1000000000000005
    vertex 4.5 1.997961249874388 6.1000000000000005
  endloop
endfacet
facet normal -9.490617707834047e-18 -6.302342159102534e-16 1.0
  outer loop
    vertex 31.499999999999993 1.9979612498743902 4.000000000000002
    vertex 23.499999999999996 3.49796124987439 4.000000000000003
    vertex 23.499999999999996 1.998980624937195 4.000000000000002
  endloop
endfacet
facet normal -9.490617707834047e-18 -6.302342159102534e-16 1.0
  outer loop
    vertex 23.499999999999996 3.49796124987439 4.000000000000003
    vertex 31.499999999999993 1.9979612498743902 4.000000000000002
    vertex 30.0 3.49796124987439 4.000000000000003
  endloop
endfacet
facet normal -9.490617707834047e-18 -6.302342159102534e-16 1.0
  outer loop
    vertex 30.0 3.49796124987439 4.000000000000003
    vertex 31.499999999999993 1.9979612498743902 4.000000000000002
    vertex 30.0 6.4979612498743915 4.000000000000004
  endloop
endfacet
facet normal -9.490617707834047e-18 -6.302342159102534e-16 1.0
  outer loop
    vertex 30.0 6.4979612498743915 4.000000000000004
    vertex 31.499999999999993 1.9979612498743902 4.000000000000002
    vertex 31.499999999999993 6.4979612498743915 4.000000000000004
  endloop
endfacet
facet normal 1.0 -0.0 -0.0
  outer loop
    vertex 11.499999999999998 1.9999999999999998 0.0
    vertex 11.499999999999998 0.0 7.300000000000003
    vertex 11.499999999999998 0.0 0.0
  endloop
endfacet
facet normal 1.0 -0.0 -0.0
  outer loop
    vertex 11.499999999999998 0.0 7.300000000000003
    vertex 11.499999999999998 1.9999999999999998 0.0
    vertex 11.499999999999998 1.9989806249371957 3.0000000000000013
  endloop
endfacet
facet normal 1.0 -0.0 -0.0
  outer loop
    vertex 11.499999999999998 0.0 7.300000000000003
    vertex 11.499999999999998 1.9989806249371957 3.0000000000000013
    vertex 11.499999999999998 1.998980624937195 4.000000000000001
  endloop
endfacet
facet normal 1.0 -0.0 -0.0
  outer loop
    vertex 11.499999999999998 0.0 7.300000000000003
    vertex 11.499999999999998 1.998980624937195 4.000000000000001
    vertex 11.499999999999998 1.9989806249371942 6.1000000000000005
  endloop
endfacet
facet normal 1.0 -0.0 -0.0
  outer loop
    vertex 11.499999999999998 1.9989806249371957 3.0000000000000013
    vertex 11.499999999999998 3.4979612498743897 4.000000000000003
    vertex 11.499999999999998 1.998980624937195 4.000000000000001
  endloop
endfacet
facet normal 1.0 -0.0 -0.0
  outer loop
    vertex 11.499999999999998 3.4979612498743897 4.000000000000003
    vertex 11.499999999999998 1.9989806249371957 3.0000000000000013
    vertex 11.499999999999998 3.49796124987439 3.0000000000000027
  endloop
endfacet
facet normal 1.0 -0.0 -0.0
  outer loop
    vertex 11.499999999999998 1.9999999999999998 7.300000000000003
    vertex 11.499999999999998 0.0 7.300000000000003
    vertex 11.499999999999998 1.9989806249371942 6.1000000000000005
  endloop
endfacet
facet normal -1.0 0.0 0.0
  outer loop
    vertex 23.499999999999996 1.9999999999999998 7.300000000000003
    vertex 23.499999999999996 0.0 0.0
    vertex 23.499999999999996 0.0 7.300000000000003
  endloop
endfacet
facet normal -1.0 0.0 0.0
  outer loop
    vertex 23.499999999999996 0.0 0.0
    vertex 23.499999999999996 1.9999999999999998 7.300000000000003
    vertex 23.499999999999996 1.9989806249371942 6.1000000000000005
  endloop
endfacet
facet normal -1.0 0.0 0.0
  outer loop
    vertex 23.499999999999996 3.49796124987439 4.000000000000003
    vertex 23.499999999999996 1.9989806249371957 3.0000000000000018
    vertex 23.499999999999996 1.998980624937195 4.000000000000002
  endloop
endfacet
facet normal -1.0 0.0 0.0
  outer loop
    vertex 23.499999999999996 1.9989806249371957 3.0000000000000018
    vertex 23.499999999999996 3.49796124987439 4.000000000000003
    vertex 23.499999999999996 3.497961249874391 3.0000000000000027
  endloop
endfacet
facet normal -1.0 0.0 0.0
  outer loop
    vertex 23.499999999999996 0.0 0.0
    vertex 23.499999999999996 1.9989806249371957 3.0000000000000018
    vertex 23.499999999999996 1.9999999999999998 0.0
  endloop
endfacet
facet normal -1.0 0.0 0.0
  outer loop
    vertex 23.499999999999996 1.9989806249371957 3.0000000000000018
    vertex 23.499999999999996 0.0 0.0
    vertex 23.499999999999996 1.998980624937195 4.000000000000002
  endloop
endfacet
facet normal -1.0 0.0 0.0
  outer loop
    vertex 23.499999999999996 1.998980624937195 4.000000000000002
    vertex 23.499999999999996 0.0 0.0
    vertex 23.499999999999996 1.9989806249371942 6.1000000000000005
  endloop
endfacet
facet normal -1.0071308866242496e-16 1.0 -2.9465781692123427e-31
  outer loop
    vertex 4.500000000000002 3.4979612498743897 4.000000000000003
    vertex 11.499999999999998 3.49796124987439 3.0000000000000027
    vertex 4.5 3.497961249874389 3.0000000000000013
  endloop
endfacet
facet normal -1.0071308866242496e-16 1.0 -2.9465781692123427e-31
  outer loop
    vertex 11.499999999999998 3.49796124987439 3.0000000000000027
    vertex 4.500000000000002 3.4979612498743897 4.000000000000003
    vertex 11.499999999999998 3.4979612498743897 4.000000000000003
  endloop
endfacet
facet normal 4.0087890550801924e-17 -1.7414327927029987e-18 1.0
  outer loop
    vertex -3.0 12.0 7.999999999999999
    vertex -1.4999999999999987 44.5 7.999999999999999
    vertex -3.0 40.50000000000001 8.0
  endloop
endfacet
facet normal 4.0087890550801924e-17 -1.7414327927029987e-18 1.0
  outer loop
    vertex -1.4999999999999987 44.5 7.999999999999999
    vertex -3.0 12.0 7.999999999999999
    vertex 0.0 9.0 7.999999999999999
  endloop
endfacet
facet normal 4.0087890550801924e-17 -1.7414327927029987e-18 1.0
  outer loop
    vertex 4.5 3.497961249874389 7.999999999999999
    vertex 0.0 9.0 7.999999999999999
    vertex 0.0 3.497961249874389 7.999999999999999
  endloop
endfacet
facet normal 4.0087890550801924e-17 -1.7414327927029987e-18 1.0
  outer loop
    vertex 0.0 9.0 7.999999999999999
    vertex 4.5 3.497961249874389 7.999999999999999
    vertex 3.0 8.497961249874388 7.999999999999999
  endloop
endfacet
facet normal 4.0087890550801924e-17 -1.7414327927029987e-18 1.0
  outer loop
    vertex 3.0 8.497961249874388 7.999999999999999
    vertex 4.5 3.497961249874389 7.999999999999999
    vertex 4.5 8.497961249874388 7.999999999999999
  endloop
endfacet
facet normal 4.0087890550801924e-17 -1.7414327927029987e-18 1.0
  outer loop
    vertex -1.4999999999999987 44.5 7.999999999999999
    vertex -3.0 51.0 7.999999999999999
    vertex -3.0 44.50000000000001 7.999999999999999
  endloop
endfacet
facet normal 4.0087890550801924e-17 -1.7414327927029987e-18 1.0
  outer loop
    vertex -3.0 51.0 7.999999999999999
    vertex -1.4999999999999987 44.5 7.999999999999999
    vertex 3.0 51.0 7.999999999999999
  endloop
endfacet
facet normal 4.0087890550801924e-17 -1.7414327927029987e-18 1.0
  outer loop
    vertex 3.0 51.0 7.999999999999999
    vertex -1.4999999999999987 44.5 7.999999999999999
    vertex 0.0 9.0 7.999999999999999
  endloop
endfacet
facet normal 4.0087890550801924e-17 -1.7414327927029987e-18 1.0
  outer loop
    vertex 3.0 51.0 7.999999999999999
    vertex 0.0 9.0 7.999999999999999
    vertex 3.0 8.497961249874388 7.999999999999999
  endloop
endfacet
facet normal 0.0 0.0 1.0
  outer loop
    vertex 34.5 0.0 9.999999999999998
    vertex 0.0 3.497961249874389 9.999999999999998
    vertex 0.0 0.0 9.999999999999998
  endloop
endfacet
facet normal 0.0 0.0 1.0
  outer loop
    vertex 0.0 3.497961249874389 9.999999999999998
    vertex 34.5 0.0 9.999999999999998
    vertex 4.5 3.497961249874389 9.999999999999998
  endloop
endfacet
facet normal 0.0 0.0 1.0
  outer loop
    vertex 4.5 3.497961249874389 9.999999999999998
    vertex 34.5 0.0 9.999999999999998
    vertex 30.0 3.49796124987439 9.999999999999998
  endloop
endfacet
facet normal 0.0 0.0 1.0
  outer loop
    vertex 30.0 3.49796124987439 9.999999999999998
    vertex 34.5 0.0 9.999999999999998
    vertex 34.5 3.49796124987439 9.999999999999998
  endloop
endfacet
facet normal 0.0 1.0 0.0
  outer loop
    vertex 30.0 3.49796124987439 9.999999999999998
    vertex 34.5 3.49796124987439 7.999999999999999
    vertex 30.0 3.49796124987439 7.999999999999999
  endloop
endfacet
facet normal 0.0 1.0 0.0
  outer loop
    vertex 34.5 3.49796124987439 7.999999999999999
    vertex 30.0 3.49796124987439 9.999999999999998
    vertex 34.5 3.49796124987439 9.999999999999998
  endloop
endfacet
facet normal 0.0 1.0 0.0
  outer loop
    vertex 0.0 3.497961249874389 9.999999999999998
    vertex 4.5 3.497961249874389 7.999999999999999
    vertex 0.0 3.497961249874389 7.999999999999999
  endloop
endfacet
facet normal 0.0 1.0 0.0
  outer loop
    vertex 4.5 3.497961249874389 7.999999999999999
    vertex 0.0 3.497961249874389 9.999999999999998
    vertex 4.5 3.497961249874389 9.999999999999998
  endloop
endfacet
endsolid ESP_Halter_V
