solid MP3_Halter
facet normal 0.0 0.0 -1.0
  outer loop
    vertex 14.0 12.999999999999998 0.0
    vertex 0.0 0.0 0.0
    vertex 0.0 12.999999999999998 0.0
  endloop
endfacet
facet normal 0.0 0.0 -1.0
  outer loop
    vertex 0.0 0.0 0.0
    vertex 14.0 12.999999999999998 0.0
    vertex 14.0 0.0 0.0
  endloop
endfacet
facet normal -1.0 0.0 0.0
  outer loop
    vertex 0.0 12.999999999999998 1.5
    vertex 0.0 0.0 0.0
    vertex 0.0 0.0 1.5
  endloop
endfacet
facet normal -1.0 0.0 0.0
  outer loop
    vertex 0.0 0.0 0.0
    vertex 0.0 12.999999999999998 1.5
    vertex 0.0 12.999999999999998 0.0
  endloop
endfacet
facet normal -3.530899520646802e-19 1.0 -1.4024008608930708e-16
  outer loop
    vertex 0.0 12.999999999999998 1.5
    vertex 14.0 12.999999999999998 0.0
    vertex 0.0 12.999999999999998 0.0
  endloop
endfacet
facet normal -3.530899520646802e-19 1.0 -1.4024008608930708e-16
  outer loop
    vertex 14.0 12.999999999999998 0.0
    vertex 0.0 12.999999999999998 1.5
    vertex 4.000000000000001 12.999999999999998 1.4999999999999944
  endloop
endfacet
facet normal -3.530899520646802e-19 1.0 -1.4024008608930708e-16
  outer loop
    vertex 4.000000000000001 12.999999999999998 1.4999999999999944
    vertex 0.0 12.999999999999998 1.5
    vertex 2.0000000000000027 12.999999999999998 3.4999999999999907
  endloop
endfacet
facet normal -3.530899520646802e-19 1.0 -1.4024008608930708e-16
  outer loop
    vertex 4.000000000000001 12.999999999999998 1.4999999999999944
    vertex 2.0000000000000027 12.999999999999998 3.4999999999999907
    vertex 4.000000000000051 13.000000000000002 21.499999999999996
  endloop
endfacet
facet normal -3.530899520646802e-19 1.0 -1.4024008608930708e-16
  outer loop
    vertex 4.000000000000051 13.000000000000002 21.499999999999996
    vertex 2.0000000000000027 12.999999999999998 3.4999999999999907
    vertex 2.0000000000000306 13.000000000000002 21.499999999999996
  endloop
endfacet
facet normal -3.530899520646802e-19 1.0 -1.4024008608930708e-16
  outer loop
    vertex 14.0 12.999999999999998 0.0
    vertex 9.5 12.999999999999998 1.499999999999995
    vertex 14.0 12.999999999999998 1.5
  endloop
endfacet
facet normal -3.530899520646802e-19 1.0 -1.4024008608930708e-16
  outer loop
    vertex 9.5 12.999999999999998 1.499999999999995
    vertex 14.0 12.999999999999998 0.0
    vertex 4.000000000000001 12.999999999999998 1.4999999999999944
  endloop
endfacet
facet normal -3.530899520646802e-19 1.0 -1.4024008608930708e-16
  outer loop
    vertex 14.0 12.999999999999998 1.5
    vertex 9.5 12.999999999999998 1.499999999999995
    vertex 11.499999999999993 12.999999999999998 3.4999999999999956
  endloop
endfacet
facet normal -3.530899520646802e-19 1.0 -1.4024008608930708e-16
  outer loop
    vertex 11.499999999999993 12.999999999999998 3.4999999999999956
    vertex 9.5 12.999999999999998 1.499999999999995
    vertex 9.49999999999994 13.000000000000002 21.500000000000018
  endloop
endfacet
facet normal -3.530899520646802e-19 1.0 -1.4024008608930708e-16
  outer loop
    vertex 11.499999999999993 12.999999999999998 3.4999999999999956
    vertex 9.49999999999994 13.000000000000002 21.500000000000018
    vertex 11.499999999999938 13.000000000000002 21.500000000000018
  endloop
endfacet
facet normal 1.0 -0.0 -0.0
  outer loop
    vertex 14.0 12.999999999999998 0.0
    vertex 14.0 0.0 1.5
    vertex 14.0 0.0 0.0
  endloop
endfacet
facet normal 1.0 -0.0 -0.0
  outer loop
    vertex 14.0 0.0 1.5
    vertex 14.0 12.999999999999998 0.0
    vertex 14.0 12.999999999999998 1.5
  endloop
endfacet
facet normal 7.962525211009159e-17 -1.0 6.069625014848839e-17
  outer loop
    vertex 14.0 0.0 1.5
    vertex 0.0 0.0 0.0
    vertex 14.0 0.0 0.0
  endloop
endfacet
facet normal 7.962525211009159e-17 -1.0 6.069625014848839e-17
  outer loop
    vertex 0.0 0.0 0.0
    vertex 14.0 0.0 1.5
    vertex 9.5 0.0 1.4999999999999956
  endloop
endfacet
facet normal 7.962525211009159e-17 -1.0 6.069625014848839e-17
  outer loop
    vertex 0.0 0.0 0.0
    vertex 9.5 0.0 1.4999999999999956
    vertex 3.9999999999999996 0.0 1.499999999999992
  endloop
endfacet
facet normal 7.962525211009159e-17 -1.0 6.069625014848839e-17
  outer loop
    vertex 9.5 0.0 1.4999999999999956
    vertex 14.0 0.0 1.5
    vertex 11.499999999999993 1.42354077244004e-16 3.4999999999999964
  endloop
endfacet
facet normal 7.962525211009159e-17 -1.0 6.069625014848839e-17
  outer loop
    vertex 9.5 0.0 1.4999999999999956
    vertex 11.499999999999993 1.42354077244004e-16 3.4999999999999964
    vertex 9.49999999999994 2.8470815448800906e-15 21.500000000000018
  endloop
endfacet
facet normal 7.962525211009159e-17 -1.0 6.069625014848839e-17
  outer loop
    vertex 9.49999999999994 2.8470815448800906e-15 21.500000000000018
    vertex 11.499999999999993 1.42354077244004e-16 3.4999999999999964
    vertex 11.499999999999938 2.8470815448800906e-15 21.500000000000018
  endloop
endfacet
facet normal 7.962525211009159e-17 -1.0 6.069625014848839e-17
  outer loop
    vertex 3.9999999999999996 0.0 1.499999999999992
    vertex 0.0 0.0 1.5
    vertex 0.0 0.0 0.0
  endloop
endfacet
facet normal 7.962525211009159e-17 -1.0 6.069625014848839e-17
  outer loop
    vertex 0.0 0.0 1.5
    vertex 3.9999999999999996 0.0 1.499999999999992
    vertex 2.0000000000000027 -2.0336296749143473e-17 3.4999999999999907
  endloop
endfacet
facet normal 7.962525211009159e-17 -1.0 6.069625014848839e-17
  outer loop
    vertex 2.0000000000000027 -2.0336296749143473e-17 3.4999999999999907
    vertex 3.9999999999999996 0.0 1.499999999999992
    vertex 4.000000000000049 -4.0672593498287087e-16 21.499999999999996
  endloop
endfacet
facet normal 7.962525211009159e-17 -1.0 6.069625014848839e-17
  outer loop
    vertex 2.0000000000000027 -2.0336296749143473e-17 3.4999999999999907
    vertex 4.000000000000049 -4.0672593498287087e-16 21.499999999999996
    vertex 2.0000000000000306 -4.0672593498287087e-16 21.499999999999996
  endloop
endfacet
facet normal -3.5249581031848733e-16 -6.77876558304783e-17 1.0
  outer loop
    vertex 9.5 0.0 1.4999999999999956
    vertex 4.000000000000001 12.999999999999998 1.4999999999999944
    vertex 3.9999999999999996 0.0 1.499999999999992
  endloop
endfacet
facet normal -3.5249581031848733e-16 -6.77876558304783e-17 1.0
  outer loop
    vertex 4.000000000000001 12.999999999999998 1.4999999999999944
    vertex 9.5 0.0 1.4999999999999956
    vertex 9.5 12.999999999999998 1.499999999999995
  endloop
endfacet
facet normal 1.8946649804618672e-15 -2.0336296749143593e-17 1.0
  outer loop
    vertex 4.000000000000049 -4.0672593498287087e-16 21.499999999999996
    vertex 2.0000000000000306 13.000000000000002 21.499999999999996
    vertex 2.0000000000000306 -4.0672593498287087e-16 21.499999999999996
  endloop
endfacet
facet normal 1.8946649804618672e-15 -2.0336296749143593e-17 1.0
  outer loop
    vertex 2.0000000000000306 13.000000000000002 21.499999999999996
    vertex 4.000000000000049 -4.0672593498287087e-16 21.499999999999996
    vertex 4.000000000000051 13.000000000000002 21.499999999999996
  endloop
endfacet
facet normal 1.0 -1.0846024932876494e-16 -1.8946649804618672e-15
  outer loop
    vertex 3.9999999999999996 0.0 1.499999999999992
    vertex 4.000000000000051 13.000000000000002 21.499999999999996
    vertex 4.000000000000049 -4.0672593498287087e-16 21.499999999999996
  endloop
endfacet
facet normal 1.0 -1.0846024932876494e-16 -1.8946649804618672e-15
  outer loop
    vertex 4.000000000000051 13.000000000000002 21.499999999999996
    vertex 3.9999999999999996 0.0 1.499999999999992
    vertex 4.000000000000001 12.999999999999998 1.4999999999999944
  endloop
endfacet
facet normal -1.0 1.3964655349115114e-31 1.5387797873518572e-15
  outer loop
    vertex 2.0000000000000306 13.000000000000002 21.499999999999996
    vertex 2.0000000000000027 -2.0336296749143473e-17 3.4999999999999907
    vertex 2.0000000000000306 -4.0672593498287087e-16 21.499999999999996
  endloop
endfacet
facet normal -1.0 1.3964655349115114e-31 1.5387797873518572e-15
  outer loop
    vertex 2.0000000000000027 -2.0336296749143473e-17 3.4999999999999907
    vertex 2.0000000000000306 13.000000000000002 21.499999999999996
    vertex 2.0000000000000027 12.999999999999998 3.4999999999999907
  endloop
endfacet
facet normal -3.216524269156197e-15 1.4235407724400442e-16 1.0
  outer loop
    vertex 11.499999999999938 2.8470815448800906e-15 21.500000000000018
    vertex 9.49999999999994 13.000000000000002 21.500000000000018
    vertex 9.49999999999994 2.8470815448800906e-15 21.500000000000018
  endloop
endfacet
facet normal -3.216524269156197e-15 1.4235407724400442e-16 1.0
  outer loop
    vertex 9.49999999999994 13.000000000000002 21.500000000000018
    vertex 11.499999999999938 2.8470815448800906e-15 21.500000000000018
    vertex 11.499999999999938 13.000000000000002 21.500000000000018
  endloop
endfacet
facet normal 1.0 3.5182253830860164e-31 3.040760561538596e-15
  outer loop
    vertex 11.499999999999993 12.999999999999998 3.4999999999999956
    vertex 11.499999999999938 2.8470815448800906e-15 21.500000000000018
    vertex 11.499999999999993 1.42354077244004e-16 3.4999999999999964
  endloop
endfacet
facet normal 1.0 3.5182253830860164e-31 3.040760561538596e-15
  outer loop
    vertex 11.499999999999938 2.8470815448800906e-15 21.500000000000018
    vertex 11.499999999999993 12.999999999999998 3.4999999999999956
    vertex 11.499999999999938 13.000000000000002 21.500000000000018
  endloop
endfacet
facet normal -1.0 -1.7443251210235285e-31 -3.216524269156197e-15
  outer loop
    vertex 9.49999999999994 2.8470815448800906e-15 21.500000000000018
    vertex 9.5 12.999999999999998 1.499999999999995
    vertex 9.5 0.0 1.4999999999999956
  endloop
endfacet
facet normal -1.0 -1.7443251210235285e-31 -3.216524269156197e-15
  outer loop
    vertex 9.5 12.999999999999998 1.499999999999995
    vertex 9.49999999999994 2.8470815448800906e-15 21.500000000000018
    vertex 9.49999999999994 13.000000000000002 21.500000000000018
  endloop
endfacet
facet normal 0.6246950475544225 2.0684691677281564e-17 0.7808688094430318
  outer loop
    vertex 14.0 0.0 1.5
    vertex 11.499999999999993 12.999999999999998 3.4999999999999956
    vertex 11.499999999999993 1.42354077244004e-16 3.4999999999999964
  endloop
endfacet
facet normal 0.6246950475544225 2.0684691677281564e-17 0.7808688094430318
  outer loop
    vertex 11.499999999999993 12.999999999999998 3.4999999999999956
    vertex 14.0 0.0 1.5
    vertex 14.0 12.999999999999998 1.5
  endloop
endfacet
facet normal -0.7071067811865455 -0.0 0.7071067811865497
  outer loop
    vertex 2.0000000000000027 -2.0336296749143473e-17 3.4999999999999907
    vertex 0.0 12.999999999999998 1.5
    vertex 0.0 0.0 1.5
  endloop
endfacet
facet normal -0.7071067811865455 -0.0 0.7071067811865497
  outer loop
    vertex 0.0 12.999999999999998 1.5
    vertex 2.0000000000000027 -2.0336296749143473e-17 3.4999999999999907
    vertex 2.0000000000000027 12.999999999999998 3.4999999999999907
  endloop
endfacet
endsolid MP3_Halter
