solid Servohaus
facet normal 0.0 0.0 -1.0
  outer loop
    vertex 0.0 33.0 0.0
    vertex 2.5000000000000004 29.799999999999997 0.0
    vertex 0.0 0.0 0.0
  endloop
endfacet
facet normal 0.0 0.0 -1.0
  outer loop
    vertex 2.5000000000000004 29.799999999999997 0.0
    vertex 0.0 33.0 0.0
    vertex 17.200000000000003 33.0 0.0
  endloop
endfacet
facet normal 0.0 0.0 -1.0
  outer loop
    vertex 2.5000000000000004 29.799999999999997 0.0
    vertex 17.200000000000003 33.0 0.0
    vertex 14.7 29.799999999999997 0.0
  endloop
endfacet
facet normal 0.0 0.0 -1.0
  outer loop
    vertex 14.7 29.799999999999997 0.0
    vertex 17.200000000000003 33.0 0.0
    vertex 14.7 5.799999999999999 0.0
  endloop
endfacet
facet normal 0.0 0.0 -1.0
  outer loop
    vertex 0.0 0.0 0.0
    vertex 2.5000000000000004 5.799999999999998 0.0
    vertex 17.200000000000003 0.0 0.0
  endloop
endfacet
facet normal 0.0 0.0 -1.0
  outer loop
    vertex 2.5000000000000004 5.799999999999998 0.0
    vertex 0.0 0.0 0.0
    vertex 2.5000000000000004 29.799999999999997 0.0
  endloop
endfacet
facet normal 0.0 0.0 -1.0
  outer loop
    vertex 17.200000000000003 0.0 0.0
    vertex 2.5000000000000004 5.799999999999998 0.0
    vertex 14.7 5.799999999999999 0.0
  endloop
endfacet
facet normal 0.0 0.0 -1.0
  outer loop
    vertex 17.200000000000003 0.0 0.0
    vertex 14.7 5.799999999999999 0.0
    vertex 17.200000000000003 33.0 0.0
  endloop
endfacet
facet normal 0.0 0.0 1.0
  outer loop
    vertex 0.0 0.0 14.999999999999998
    vertex 2.5000000000000004 5.799999999999998 14.999999999999998
    vertex 0.0 33.0 14.999999999999998
  endloop
endfacet
facet normal 0.0 0.0 1.0
  outer loop
    vertex 2.5000000000000004 5.799999999999998 14.999999999999998
    vertex 0.0 0.0 14.999999999999998
    vertex 17.200000000000003 0.0 14.999999999999998
  endloop
endfacet
facet normal 0.0 0.0 1.0
  outer loop
    vertex 2.5000000000000004 5.799999999999998 14.999999999999998
    vertex 17.200000000000003 0.0 14.999999999999998
    vertex 14.7 5.799999999999999 14.999999999999998
  endloop
endfacet
facet normal 0.0 0.0 1.0
  outer loop
    vertex 14.7 5.799999999999999 14.999999999999998
    vertex 17.200000000000003 0.0 14.999999999999998
    vertex 14.7 29.799999999999997 14.999999999999998
  endloop
endfacet
facet normal 0.0 0.0 1.0
  outer loop
    vertex 0.0 33.0 14.999999999999998
    vertex 2.5000000000000004 29.799999999999997 14.999999999999998
    vertex 17.200000000000003 33.0 14.999999999999998
  endloop
endfacet
facet normal 0.0 0.0 1.0
  outer loop
    vertex 2.5000000000000004 29.799999999999997 14.999999999999998
    vertex 0.0 33.0 14.999999999999998
    vertex 2.5000000000000004 5.799999999999998 14.999999999999998
  endloop
endfacet
facet normal 0.0 0.0 1.0
  outer loop
    vertex 17.200000000000003 33.0 14.999999999999998
    vertex 2.5000000000000004 29.799999999999997 14.999999999999998
    vertex 14.7 29.799999999999997 14.999999999999998
  endloop
endfacet
facet normal 0.0 0.0 1.0
  outer loop
    vertex 17.200000000000003 33.0 14.999999999999998
    vertex 14.7 29.799999999999997 14.999999999999998
    vertex 17.200000000000003 0.0 14.999999999999998
  endloop
endfacet
facet normal -1.0 0.0 0.0
  outer loop
    vertex 0.0 33.0 14.999999999999998
    vertex 0.0 0.0 0.0
    vertex 0.0 0.0 14.999999999999998
  endloop
endfacet
facet normal -1.0 0.0 0.0
  outer loop
    vertex 0.0 0.0 0.0
    vertex 0.0 33.0 14.999999999999998
    vertex 0.0 33.0 0.0
  endloop
endfacet
facet normal -0.0 1.0 0.0
  outer loop
    vertex 0.0 33.0 14.999999999999998
    vertex 17.200000000000003 33.0 0.0
    vertex 0.0 33.0 0.0
  endloop
endfacet
facet normal -0.0 1.0 0.0
  outer loop
    vertex 17.200000000000003 33.0 0.0
    vertex 0.0 33.0 14.999999999999998
    vertex 17.200000000000003 33.0 14.999999999999998
  endloop
endfacet
facet normal 1.0 0.0 0.0
  outer loop
    vertex 17.200000000000003 33.0 0.0
    vertex 17.200000000000003 0.0 14.999999999999998
    vertex 17.200000000000003 0.0 0.0
  endloop
endfacet
facet normal 1.0 0.0 0.0
  outer loop
    vertex 17.200000000000003 0.0 14.999999999999998
    vertex 17.200000000000003 33.0 0.0
    vertex 17.200000000000003 33.0 14.999999999999998
  endloop
endfacet
facet normal -0.0 -1.0 -0.0
  outer loop
    vertex 17.200000000000003 0.0 14.999999999999998
    vertex 0.0 0.0 0.0
    vertex 17.200000000000003 0.0 0.0
  endloop
endfacet
facet normal -0.0 -1.0 -0.0
  outer loop
    vertex 0.0 0.0 0.0
    vertex 17.200000000000003 0.0 14.999999999999998
    vertex 0.0 0.0 14.999999999999998
  endloop
endfacet
facet normal -1.0 0.0 0.0
  outer loop
    vertex 14.7 29.799999999999997 14.999999999999998
    vertex 14.7 5.799999999999999 0.0
    vertex 14.7 5.799999999999999 14.999999999999998
  endloop
endfacet
facet normal -1.0 0.0 0.0
  outer loop
    vertex 14.7 5.799999999999999 0.0
    vertex 14.7 29.799999999999997 14.999999999999998
    vertex 14.7 29.799999999999997 0.0
  endloop
endfacet
facet normal -0.0 -1.0 -0.0
  outer loop
    vertex 14.7 29.799999999999997 14.999999999999998
    vertex 2.5000000000000004 29.799999999999997 0.0
    vertex 14.7 29.799999999999997 0.0
  endloop
endfacet
facet normal -0.0 -1.0 -0.0
  outer loop
    vertex 2.5000000000000004 29.799999999999997 0.0
    vertex 14.7 29.799999999999997 14.999999999999998
    vertex 2.5000000000000004 29.799999999999997 14.999999999999998
  endloop
endfacet
facet normal 1.0 0.0 0.0
  outer loop
    vertex 2.5000000000000004 29.799999999999997 0.0
    vertex 2.5000000000000004 5.799999999999998 14.999999999999998
    vertex 2.5000000000000004 5.799999999999998 0.0
  endloop
endfacet
facet normal 1.0 0.0 0.0
  outer loop
    vertex 2.5000000000000004 5.799999999999998 14.999999999999998
    vertex 2.5000000000000004 29.799999999999997 0.0
    vertex 2.5000000000000004 29.799999999999997 14.999999999999998
  endloop
endfacet
facet normal -5.778619841286676e-17 1.0 0.0
  outer loop
    vertex 2.5000000000000004 5.799999999999998 14.999999999999998
    vertex 14.7 5.799999999999999 0.0
    vertex 2.5000000000000004 5.799999999999998 0.0
  endloop
endfacet
facet normal -5.778619841286676e-17 1.0 0.0
  outer loop
    vertex 14.7 5.799999999999999 0.0
    vertex 2.5000000000000004 5.799999999999998 14.999999999999998
    vertex 14.7 5.799999999999999 14.999999999999998
  endloop
endfacet
endsolid Servohaus
